<?xml version="1.0" encoding="utf-8"?>
<!-- Generator: Adobe Illustrator 23.0.3, SVG Export Plug-In . SVG Version: 6.00 Build 0)  -->
<svg version="1.1" id="Layer_1" xmlns="http://www.w3.org/2000/svg" xmlns:xlink="http://www.w3.org/1999/xlink" x="0px" y="0px"
	 viewBox="0 0 214.4 211.5" style="enable-background:new 0 0 214.4 211.5;" xml:space="preserve">
<style type="text/css">
	.st0{fill:#02B3E4;}
</style>
<title>Asset 5</title>
<g id="Camada_2">
	<g>
		<path class="st0" d="M5.4,172.7c0-11.6,8.1-23.2,23-32.1v-1.2c-7.5-4.2-14.4-11.6-14.4-23.8c0-9.2,6-19.6,16.7-27v-1.2
			c-9.5-7.4-17.3-20.2-17.3-37.4C13.5,23.8,31.2,5.3,54.3,0H0v211.5h50.4C21.6,207.4,5.4,193.8,5.4,172.7z"/>
		<path class="st0" d="M68.4,84.2c17.8,0,32.2-13.4,32.2-34.2c0-20.2-14.4-33.8-32.2-33.8c-17.5,0-32.2,13.7-32.2,33.8
			C36.2,70.8,50.9,84.2,68.4,84.2z"/>
		<path class="st0" d="M71.6,195c32.5,0,52.6-14,52.6-28.8c0-13.7-10.6-17.5-31.9-17.5H64.9c-8,0-15.2-0.6-21.3-2.4
			c-13.2,7.4-17.8,15.7-17.8,24C25.9,185.5,41.7,195,71.6,195z"/>
		<path class="st0" d="M89.1,2h57.8v19.9h-36.2c6.4,6.8,11.8,17.5,11.8,29.1c0,30.9-23.9,49.6-54,49.6c-8.2-0.1-16.2-2-23.6-5.4
			c-6.9,4.4-10.9,9.8-10.9,16.6c0,11.3,10.6,16.6,29,16.6h31.4c35.9,0,53.2,9.5,53.2,33.8c0,23.3-22.5,44-59.2,49.2h126.1V0H82.8
			C85,0.5,87.1,1.2,89.1,2z"/>
	</g>
</g>
</svg>
